# xmcd CD database file
#
# Track frame offsets:
#	150
#	24790
#	74103
#	103842
#	132794
#	157395
#	179483
#	210460
#	230523
#	280137
#	304738
#
# Disc length: 4414 seconds
#
# Revision: 0
# Processed by: cddbd v1.5.2PL0 Copyright (c) Steve Scherf et al.
# Submitted via: CDex 1.51
#
DISCID=a0113c0b
DTITLE=Cappelletti,Arrigo Quintet - Hot Music
DYEAR=2013
DGENRE=Jazz
TTITLE0=Dedicato a Shorter
TTITLE1=Isafyordur 1
TTITLE2=Facile
TTITLE3=Corale For Carla
TTITLE4=Breaks 1
TTITLE5=Hot Music
TTITLE6=Tanghedia
TTITLE7=Breaks 2
TTITLE8=Isafyordur 2
TTITLE9=Intermission Music
TTITLE10=Waves
EXTD=YEAR: 2013
EXTT0=
EXTT1=
EXTT2=
EXTT3=
EXTT4=
EXTT5=
EXTT6=
EXTT7=
EXTT8=
EXTT9=
EXTT10=
PLAYORDER=
